# xmcd
#
# Track frame offsets:
#	150
#	18739
#	37314
#	53653
#	66559
#	86282
#
# Disc length: 2139 seconds
#
# Revision: 1
# Processed by: cddbd v1.5.2PL0 Copyright (c) Steve Scherf et al.
# Submitted via: audiograbber 1.83.01
#
DISCID=50085906
DTITLE=The Midnight Flyers - Girl Without A Name
DYEAR=1900
DGENRE=
TTITLE0=Forsaken Love
TTITLE1=If She Won't
TTITLE2=Jenny Change the Mirror
TTITLE3=Pure Country
TTITLE4=Disappearing
TTITLE5=Girl Without A Name
EXTD=
EXTT0=
EXTT1=
EXTT2=
EXTT3=
EXTT4=
EXTT5=
PLAYORDER=
